<svg id="svg" xmlns="http://www.w3.org/2000/svg" xmlns:xlink="http://www.w3.org/1999/xlink" width="400" height="150" viewBox="0, 0, 400,150"><g id="svgg"><path id="path0" d="M173.776 14.457 C 173.621 14.709,173.693 14.990,173.936 15.082 C 174.660 15.357,177.000 19.074,177.000 19.949 C 177.000 20.394,177.563 21.815,178.250 23.106 C 178.938 24.398,179.500 25.791,179.500 26.202 C 179.500 26.614,179.818 27.130,180.206 27.350 C 182.642 28.730,182.429 37.500,179.959 37.500 C 179.707 37.500,179.500 37.753,179.500 38.063 C 179.500 38.421,180.044 38.516,181.000 38.325 C 183.146 37.896,185.423 38.469,185.757 39.523 C 186.914 43.169,193.709 43.568,195.996 40.126 C 196.681 39.094,197.388 38.138,197.568 38.000 C 197.748 37.862,197.568 36.063,197.166 34.000 C 196.765 31.938,196.314 29.519,196.164 28.625 C 196.014 27.731,195.671 27.000,195.404 27.000 C 195.136 27.000,195.018 26.719,195.142 26.375 C 195.266 26.031,195.080 25.188,194.728 24.500 C 194.376 23.813,193.817 22.519,193.484 21.625 C 192.997 20.317,192.603 20.000,191.463 20.000 C 189.932 20.000,187.500 19.065,187.500 18.477 C 187.500 18.277,186.503 17.964,185.285 17.781 C 184.067 17.599,182.485 16.989,181.769 16.426 C 181.054 15.863,179.182 15.095,177.609 14.719 C 174.136 13.889,174.128 13.888,173.776 14.457 M70.252 17.397 C 67.201 18.439,66.959 19.277,68.892 22.111 C 70.626 24.652,71.112 26.308,71.206 30.000 C 71.245 31.512,71.465 33.597,71.695 34.633 C 71.975 35.889,71.909 37.013,71.498 38.004 C 70.753 39.803,70.736 43.436,71.470 44.170 C 72.231 44.931,72.123 47.275,71.296 47.962 C 70.878 48.309,70.604 49.422,70.624 50.695 C 70.662 53.221,70.282 54.000,69.010 54.000 C 68.188 54.000,61.513 59.157,61.083 60.125 C 60.992 60.331,60.638 60.500,60.298 60.500 C 59.958 60.500,58.760 61.288,57.636 62.250 C 56.511 63.213,55.402 64.004,55.171 64.008 C 54.364 64.023,44.500 74.967,44.500 75.847 C 44.500 76.103,43.844 76.942,43.041 77.710 L 41.582 79.108 40.074 77.429 C 39.244 76.506,38.325 74.850,38.031 73.750 C 37.329 71.121,33.940 64.897,33.048 64.599 C 32.540 64.430,32.427 64.667,32.635 65.464 C 32.810 66.133,32.667 66.659,32.267 66.813 C 31.733 67.018,31.751 67.590,32.364 69.907 C 32.929 72.040,33.037 74.093,32.799 78.129 C 32.548 82.380,32.633 83.742,33.204 84.629 C 33.601 85.245,34.090 86.644,34.289 87.736 C 35.100 92.164,40.899 96.621,45.564 96.400 L 48.750 96.250 48.916 94.250 C 49.073 92.369,48.220 89.942,46.720 88.000 C 45.734 86.723,45.518 84.882,46.197 83.537 C 46.555 82.829,47.388 81.145,48.048 79.795 C 49.327 77.183,50.266 76.136,55.940 71.000 C 61.830 65.670,71.762 61.310,70.750 64.500 C 70.575 65.050,70.637 65.500,70.887 65.500 C 71.404 65.500,71.417 70.249,70.901 70.765 C 70.716 70.951,70.775 71.657,71.032 72.334 C 71.331 73.119,71.319 73.904,71.000 74.500 C 70.725 75.014,70.500 77.029,70.500 78.978 C 70.500 82.953,70.893 82.547,65.375 84.266 C 63.577 84.827,62.500 85.439,62.500 85.901 C 62.500 86.307,62.180 86.890,61.788 87.195 C 61.104 87.729,60.783 90.020,60.930 93.307 C 60.973 94.267,61.521 95.385,62.360 96.224 C 63.789 97.652,63.523 97.634,68.891 96.679 C 70.513 96.390,70.532 96.409,70.533 98.318 C 70.533 99.381,70.641 102.513,70.774 105.279 C 70.906 108.045,70.831 112.026,70.605 114.126 C 69.897 120.739,71.263 129.500,73.003 129.500 C 73.266 129.500,73.616 130.040,73.782 130.700 C 74.102 131.975,77.493 135.000,78.603 135.000 C 79.905 135.000,80.866 131.264,81.498 123.750 C 81.844 119.625,82.347 115.828,82.616 115.311 C 82.956 114.656,82.921 114.260,82.498 113.999 C 82.081 113.741,82.018 113.101,82.296 111.937 C 82.517 111.009,82.733 109.350,82.776 108.250 C 82.819 107.150,82.911 106.025,82.982 105.750 C 83.052 105.475,83.150 103.675,83.199 101.750 C 83.441 92.361,84.277 90.519,88.486 90.114 C 89.859 89.982,91.238 89.565,91.552 89.187 C 91.866 88.809,92.939 88.497,93.936 88.494 C 94.934 88.491,96.987 88.156,98.500 87.750 C 100.013 87.344,102.863 87.009,104.834 87.006 C 109.531 86.998,112.767 85.477,114.447 82.487 L 115.610 80.419 114.194 78.941 C 113.415 78.128,112.209 77.328,111.514 77.163 C 110.819 76.997,109.969 76.641,109.625 76.370 C 109.271 76.091,107.051 75.971,104.500 76.093 C 102.025 76.211,100.000 76.151,100.000 75.958 C 100.000 75.608,104.923 70.500,105.261 70.500 C 105.638 70.500,113.500 62.418,113.500 62.030 C 113.500 61.805,114.159 61.348,114.964 61.015 C 117.761 59.857,119.263 51.261,117.108 48.750 C 114.970 46.257,112.142 44.553,109.579 44.213 C 108.148 44.023,106.857 43.673,106.709 43.434 C 106.358 42.866,104.138 42.873,103.785 43.443 C 103.634 43.687,102.665 44.045,101.631 44.239 C 100.596 44.433,99.188 44.884,98.500 45.242 C 97.813 45.600,95.450 46.136,93.250 46.434 C 91.050 46.732,88.768 47.114,88.178 47.282 C 86.334 47.810,84.807 39.969,86.207 37.165 C 86.596 36.387,87.189 34.288,87.526 32.500 C 87.863 30.712,88.236 28.797,88.355 28.244 C 88.494 27.596,88.069 26.764,87.161 25.908 C 84.875 23.752,81.647 21.000,81.404 21.000 C 81.280 21.000,80.122 19.988,78.831 18.750 C 76.142 16.174,74.563 15.925,70.252 17.397 M319.500 22.469 C 318.813 23.024,317.762 23.483,317.166 23.489 C 315.609 23.505,314.500 24.013,314.500 24.710 C 314.500 28.046,302.118 32.333,295.657 31.233 C 289.855 30.246,286.661 34.211,289.253 39.182 C 289.664 39.970,290.001 40.870,290.001 41.182 C 290.002 41.494,291.378 43.168,293.059 44.900 C 295.799 47.725,296.083 48.210,295.807 49.590 L 295.499 51.130 297.844 50.866 C 299.370 50.694,300.550 50.836,301.220 51.272 C 305.107 53.804,316.138 52.418,321.822 48.685 C 323.651 47.483,325.396 46.501,325.699 46.501 C 326.790 46.504,330.725 44.222,331.840 42.941 C 332.553 42.121,333.722 41.512,334.966 41.314 C 336.058 41.139,337.132 40.714,337.351 40.370 C 337.571 40.026,338.550 39.149,339.527 38.421 C 343.650 35.352,343.777 29.784,339.808 26.087 C 338.951 25.289,338.014 24.234,337.726 23.742 C 336.595 21.810,321.614 20.764,319.500 22.469 M214.681 41.250 C 214.523 41.663,213.967 42.000,213.447 42.000 C 212.926 42.000,212.500 42.196,212.500 42.435 C 212.500 42.674,211.431 43.139,210.125 43.468 C 208.819 43.797,207.075 44.357,206.250 44.712 C 205.425 45.067,203.512 45.760,202.000 46.253 C 200.488 46.745,199.025 47.320,198.750 47.529 C 198.475 47.739,197.350 48.055,196.250 48.231 C 195.150 48.407,192.450 49.085,190.250 49.739 C 188.050 50.393,185.012 51.250,183.500 51.645 C 179.596 52.664,168.441 56.007,167.250 56.515 C 166.700 56.750,165.463 57.083,164.500 57.256 C 163.537 57.429,161.400 58.001,159.750 58.528 C 158.100 59.055,155.905 59.591,154.871 59.720 C 152.394 60.030,144.447 61.898,141.500 62.864 C 141.088 62.999,140.008 63.163,139.101 63.229 C 135.731 63.474,136.863 66.619,140.750 67.812 C 141.300 67.980,142.101 68.425,142.529 68.800 C 142.958 69.175,144.179 69.593,145.243 69.729 C 146.306 69.865,147.324 70.215,147.504 70.506 C 148.088 71.451,151.250 71.679,152.091 70.837 C 152.512 70.417,153.732 69.914,154.803 69.721 C 155.874 69.528,157.008 69.166,157.322 68.917 C 157.637 68.668,158.087 68.513,158.322 68.571 C 158.992 68.736,162.928 67.520,163.213 67.060 C 163.353 66.833,165.219 66.360,167.359 66.010 C 169.499 65.659,171.700 65.098,172.250 64.763 C 172.800 64.428,173.813 64.022,174.500 63.860 C 175.188 63.698,178.098 62.883,180.967 62.048 C 188.244 59.932,189.219 61.197,186.558 69.302 C 183.593 78.336,182.870 78.968,178.500 76.350 C 174.683 74.064,164.117 71.941,162.375 73.111 C 161.565 73.654,164.546 76.352,167.812 78.032 C 170.239 79.280,174.500 83.162,174.500 84.125 C 174.500 84.425,174.844 85.052,175.265 85.517 C 176.850 87.268,177.037 89.361,175.719 90.610 C 175.058 91.237,174.513 92.031,174.509 92.375 C 174.504 92.719,174.278 93.000,174.007 93.000 C 173.735 93.000,173.194 93.731,172.804 94.625 C 172.414 95.519,170.836 97.590,169.297 99.228 C 167.759 100.866,166.500 102.488,166.500 102.832 C 166.500 103.176,165.262 104.666,163.750 106.143 C 162.238 107.619,161.000 109.089,161.000 109.407 C 161.000 109.934,158.259 112.008,155.930 113.244 C 155.419 113.515,155.000 114.134,155.000 114.619 C 155.000 115.103,154.697 115.500,154.328 115.500 C 153.958 115.500,153.002 116.062,152.203 116.749 C 151.404 117.437,150.557 117.999,150.322 117.999 C 150.087 118.000,149.211 118.575,148.376 119.278 C 146.432 120.914,142.323 123.000,141.046 123.000 C 140.503 123.000,139.920 123.225,139.750 123.500 C 139.580 123.775,138.284 124.000,136.870 124.000 C 135.069 124.000,134.458 124.158,134.827 124.527 C 135.363 125.063,142.398 125.226,146.500 124.797 C 148.384 124.600,155.721 122.198,161.750 119.805 C 164.210 118.829,167.480 117.017,168.431 116.104 C 168.920 115.634,170.194 114.575,171.261 113.750 C 174.849 110.976,179.484 105.742,182.694 100.840 C 185.255 96.929,185.534 96.899,188.889 100.178 C 190.463 101.716,192.998 104.173,194.524 105.638 C 196.050 107.104,197.963 109.177,198.774 110.246 C 201.003 113.181,206.564 118.520,207.068 118.208 C 207.312 118.057,207.652 118.633,207.823 119.489 C 208.026 120.503,208.621 121.296,209.536 121.769 C 210.308 122.168,211.237 122.889,211.601 123.372 C 212.342 124.356,214.194 125.500,215.046 125.500 C 215.353 125.500,216.745 126.073,218.138 126.772 C 220.821 128.120,221.989 128.078,226.500 126.472 C 227.463 126.129,228.588 125.730,229.000 125.585 C 229.412 125.439,230.088 125.258,230.500 125.181 C 230.912 125.104,232.600 124.669,234.250 124.215 C 235.900 123.761,238.095 123.278,239.128 123.142 C 240.161 123.006,241.131 122.693,241.283 122.447 C 241.435 122.201,242.052 121.999,242.655 121.998 C 243.257 121.997,244.487 121.547,245.387 120.998 C 246.287 120.449,247.813 120.000,248.778 120.000 C 250.794 120.000,251.569 118.855,250.367 117.653 C 249.626 116.912,248.287 116.544,242.616 115.523 C 241.167 115.263,237.792 114.086,235.116 112.909 C 232.440 111.732,229.932 110.839,229.543 110.925 C 229.154 111.011,228.367 110.869,227.793 110.610 C 227.219 110.351,225.906 109.774,224.875 109.327 C 223.844 108.881,223.000 108.288,223.000 108.008 C 223.000 107.729,222.478 107.500,221.839 107.500 C 219.856 107.500,216.004 105.948,214.438 104.517 C 213.394 103.564,212.572 103.221,211.721 103.383 C 210.820 103.555,210.500 103.397,210.500 102.780 C 210.500 102.273,209.638 101.562,208.309 100.975 C 207.105 100.442,205.749 99.442,205.298 98.753 C 204.846 98.064,204.094 97.500,203.626 97.500 C 203.158 97.500,202.095 96.751,201.263 95.836 C 200.431 94.921,198.666 93.437,197.341 92.539 C 196.016 91.640,194.797 90.533,194.631 90.078 C 194.465 89.622,193.440 88.441,192.354 87.453 L 190.379 85.655 191.158 83.953 C 192.742 80.491,193.396 78.594,193.744 76.449 C 193.940 75.240,194.547 72.843,195.094 71.124 C 196.085 68.005,196.008 64.000,194.956 64.000 C 194.705 64.000,194.500 63.574,194.500 63.054 C 194.500 62.475,194.039 61.993,193.311 61.810 C 192.372 61.574,190.048 59.120,190.613 58.962 C 190.689 58.941,191.200 58.841,191.750 58.739 C 192.880 58.531,197.609 57.149,199.500 56.474 C 200.188 56.229,202.438 55.660,204.500 55.210 C 206.563 54.761,208.446 54.210,208.686 53.986 C 208.926 53.761,209.435 53.698,209.817 53.845 C 210.200 53.992,210.830 53.849,211.217 53.527 C 211.755 53.081,212.146 53.083,212.872 53.536 C 214.228 54.383,222.486 52.934,224.508 51.495 C 225.972 50.452,226.800 46.500,225.554 46.500 C 225.309 46.500,224.967 45.938,224.795 45.250 C 224.601 44.478,224.126 44.000,223.552 44.000 C 223.041 44.000,222.352 43.674,222.021 43.276 C 221.691 42.877,220.594 42.287,219.585 41.965 C 218.576 41.643,217.536 41.181,217.275 40.940 C 216.524 40.245,214.996 40.427,214.681 41.250 M101.218 53.448 C 101.370 53.694,101.160 54.538,100.750 55.323 C 100.341 56.108,100.005 57.144,100.003 57.625 C 100.001 58.106,99.662 58.500,99.250 58.500 C 98.833 58.500,98.500 58.944,98.500 59.500 C 98.500 60.050,98.290 60.500,98.034 60.500 C 97.777 60.500,97.421 60.961,97.242 61.525 C 97.063 62.089,96.130 63.382,95.168 64.400 C 90.977 68.834,89.213 70.492,88.686 70.496 C 88.376 70.498,87.842 70.838,87.500 71.250 C 86.085 72.955,85.704 71.554,85.190 62.750 L 84.899 57.750 88.719 56.570 C 90.820 55.920,92.852 55.077,93.234 54.695 C 93.616 54.313,94.788 53.978,95.839 53.950 C 96.890 53.923,98.313 53.720,99.000 53.500 C 100.736 52.944,100.904 52.940,101.218 53.448 M353.250 57.234 C 352.975 57.319,350.950 57.893,348.750 58.508 C 346.550 59.124,344.525 59.805,344.250 60.021 C 343.665 60.481,336.673 61.928,332.000 62.555 C 330.213 62.795,327.865 63.345,326.784 63.778 C 325.703 64.211,323.902 64.642,322.784 64.737 C 320.098 64.964,315.464 65.822,311.750 66.781 C 306.444 68.150,305.309 68.431,302.000 69.194 C 300.212 69.606,297.755 70.297,296.540 70.730 C 295.324 71.162,292.062 71.977,289.290 72.541 C 286.518 73.105,282.577 74.014,280.532 74.560 C 271.453 76.989,265.213 77.515,260.500 76.250 C 250.939 73.684,249.475 77.715,256.853 86.292 C 259.380 89.230,265.969 89.660,275.500 87.509 C 278.113 86.919,281.025 86.309,281.971 86.153 C 282.918 85.996,284.381 85.449,285.221 84.936 C 286.062 84.423,287.091 84.003,287.507 84.002 C 287.924 84.001,289.612 83.353,291.257 82.563 C 301.364 77.709,304.077 77.517,303.290 81.712 C 302.607 85.353,291.390 97.653,286.505 100.118 C 279.362 103.721,275.825 115.902,280.549 120.626 C 283.717 123.793,299.667 121.611,310.750 116.494 C 317.426 113.412,320.792 111.513,324.250 108.881 C 325.625 107.835,327.313 106.841,328.000 106.674 C 328.688 106.506,329.966 105.836,330.842 105.184 C 334.257 102.643,336.799 104.794,336.266 109.775 C 335.861 113.551,336.548 114.894,340.097 117.262 C 341.281 118.053,342.748 119.136,343.357 119.670 C 346.115 122.088,350.681 118.714,352.672 112.786 C 354.887 106.193,353.598 101.875,347.439 95.250 C 345.905 93.600,343.997 91.522,343.200 90.633 C 339.714 86.745,331.360 83.600,328.521 85.107 C 325.602 86.655,325.693 91.820,328.685 94.372 C 330.202 95.666,330.328 96.833,329.102 98.250 C 326.805 100.904,324.206 101.635,314.000 102.496 C 299.623 103.709,299.607 103.635,311.579 91.433 C 318.504 84.376,319.419 82.592,318.207 78.513 C 317.384 75.739,317.676 73.709,319.001 72.999 C 320.342 72.282,331.551 70.937,335.643 71.002 C 337.627 71.034,341.613 71.017,344.500 70.965 C 347.387 70.913,353.436 70.992,357.941 71.141 C 368.030 71.476,368.738 71.143,367.920 66.452 C 366.913 60.678,358.729 55.536,353.250 57.234 " stroke="none" fill="#000000" fill-rule="evenodd"></path></g></svg>